<svg xmlns="http://www.w3.org/2000/svg" version="1.1" viewBox="-5.0 -10.0 110.0 135.0">
 <path d="m88.211 49.883c2.5352 0.77344 4.3164 1.9023 5.293 3.2148 0.78516 1.0547 1.0781 2.2148 0.86719 3.418-0.19531 1.1094-0.83203 2.2109-1.918 3.2383-2.0547 1.9414-5.9023 3.7344-11.629 4.8789-0.3125 0.0625-0.57031 0.18359-0.77734 0.35156-0.37109 0.29688-0.625 0.75391-0.76562 1.2852-0.16016 0.59766-0.16797 1.2812-0.035156 1.9492 0.13281 0.66406 0.40234 1.3008 0.80859 1.8047 1.5664 1.9492 2.4688 3.6836 2.7695 5.207 0.35156 1.7695-0.066407 3.2539-1.1602 4.4492-0.98047 1.0703-2.4922 1.8477-4.4648 2.3359-3.75 0.92969-9.3828 0.87891-16.285-0.082031-1.0586-0.14844-2.2734-0.125-3.4609 0.015625-1.2969 0.15234-2.5234 0.44531-3.4414 0.80469-3.4766 1.3555-6.3477 3.1758-9.1953 4.9805-5.1445 3.2578-10.219 6.4727-18.777 7.2305-1.8008 0.16016-3.2539-0.21484-4.3281-0.92969-0.91016-0.60547-1.5273-1.4492-1.8477-2.4258-0.30859-0.9375-0.32812-1.9844-0.058593-3.0469 0.27734-1.082 0.85937-2.1914 1.7656-3.2148 0.77734-7.332 0.89063-13.348-0.60156-18.734-1.5078-5.4336-4.6914-10.316-10.547-15.414-3.168-2.7578-4.6211-5.3359-4.8359-7.4453-0.12891-1.2539 0.15625-2.3516 0.77734-3.2539 0.60156-0.87891 1.5078-1.543 2.6367-1.9492 2.1484-0.77344 5.1914-0.59766 8.4297 0.86328 0.30078 0.13672 0.64453 0.10938 0.95312-0.019531 0.23438-0.097656 0.44141-0.24609 0.60156-0.42578 0.12891-0.14844 0.21875-0.30469 0.23828-0.44922 0.015625-0.10156-0.015625-0.21875-0.10547-0.33594-3.4609-4.5234-5.8477-9.2539-6.5391-12.832-0.3125-1.6055-0.28906-3.0312 0.10938-4.1836 0.46875-1.3438 1.3984-2.2852 2.8477-2.6953 1.2305-0.34766 2.832-0.26562 4.832 0.35547l0.007812 0.003906c0.39453 0.12109 0.82422 0.25391 1.2695 0.34375 0.66797 0.13281 1.3242 0.066407 1.5156-0.89453 1.1406-5.7227 3.4141-9.6406 5.9531-11.641 1.2891-1.0195 2.6602-1.5664 4.0195-1.6367 1.4102-0.070312 2.7734 0.36328 3.9805 1.3125 1.8672 1.4688 3.3555 4.207 4.0156 8.2344 0.28125 1.7148 0.81641 2.1055 1.4102 2.0078 0.65625-0.10938 1.5-0.53516 2.2773-0.92969l0.12891-0.066406c2.3594-1.1953 4.4258-1.6172 6.0391-1.3477 1.2969 0.21484 2.3125 0.85156 2.9961 1.8672 0.62891 0.9375 0.93359 2.168 0.86328 3.6562-0.13672 2.8281-1.668 6.7852-5.0039 11.578-0.18359 0.26172-0.28516 0.52734-0.31641 0.78906-0.0625 0.47266 0.070312 0.98047 0.33984 1.4609 0.30078 0.53906 0.76562 1.0391 1.3242 1.4297s1.1914 0.66016 1.832 0.74219c1.1133 0.14453 2.0938 0.33984 2.9453 0.58984 0.33984 0.097656 0.65625 0.20703 0.96094 0.32031 0.36719-0.78906 0.75781-1.5078 1.168-2.1367 0.89062-1.3789 1.8945-2.3945 2.9766-2.9453 1.2656-0.64453 2.5898-0.67578 3.9219 0.035156 1.1289 0.60156 2.2266 1.7734 3.2422 3.6094v0.003906l0.003906-0.003906 0.070313 0.12891c0.1875 0.33984 0.38281 0.69531 0.55469 0.95312 0.38672 0.58594 0.90625 1.0312 1.8008 0.44141 4.8789-3.2148 9.2461-4.4258 12.438-4.1133 1.6484 0.16016 3.0195 0.71875 4.0352 1.6094 1.0586 0.92969 1.7148 2.1953 1.8945 3.7383 0.26562 2.3008-0.58984 5.2344-2.8633 8.5391-0.98438 1.4297-0.86719 2.0859-0.375 2.4258 0.55078 0.37891 1.4531 0.65234 2.2812 0.90625zm-65.598 1.3633c-0.59766-0.45312-0.71484-1.3047-0.26172-1.9023 0.45313-0.59766 1.3047-0.71484 1.9023-0.26172 1.8672 1.418 3.7617 3.1406 5.3594 5.4766 0.46484 0.67969 0.89844 1.4062 1.3047 2.1914 0.19141-4.3203 0.17578-8.2305-0.042969-11.734-0.015625-0.26953-0.035156-0.53125-0.054688-0.79688-0.007812-0.058594-0.011718-0.11719-0.011718-0.17578-0.44141-5.8945-1.4844-10.551-3.125-13.965-0.32812-0.67578-0.042969-1.4883 0.63281-1.8164 0.67578-0.32812 1.4883-0.042969 1.8164 0.63281 1.1602 2.4102 2.043 5.3477 2.6484 8.8125 0.58984-1.543 1.2188-2.9648 1.8828-4.2617 1.4766-2.875 3.1523-5.1406 5.0234-6.8008 0.5625-0.49609 1.4219-0.44531 1.918 0.11719 0.49609 0.5625 0.44531 1.4219-0.11719 1.918-1.6094 1.4258-3.0781 3.4297-4.4023 6.0117-1.3281 2.5859-2.5078 5.7422-3.5352 9.4805 0.015625 0.22656 0.03125 0.44922 0.046875 0.67969 0.19141 3.0742 0.23047 6.4531 0.11328 10.133 1.3359-2.8164 2.9648-5.0547 4.8828-6.7188 0.16797-2.3984 0.80469-4.1602 1.7188-5.3359 0.77344-0.99219 1.7461-1.5859 2.8203-1.8086 1.043-0.21484 2.1523-0.066406 3.2422 0.41797 2.0859 0.92969 4.1562 3.1641 5.4805 6.4688 0.12109 0.30469 0.38672 0.51953 0.69922 0.64063 0.23437 0.09375 0.49219 0.12891 0.73437 0.10937 0.19531-0.015624 0.36328-0.066406 0.47656-0.15234 0.082031-0.0625 0.14062-0.16406 0.15625-0.30859 0.37891-3.3477 1.0781-6.4883 1.9961-9.1289-0.21875-0.082031-0.45312-0.16016-0.69922-0.23438-0.72266-0.21094-1.5664-0.37891-2.5312-0.50391-1.1016-0.14063-2.1523-0.57813-3.0469-1.1992-0.89062-0.61719-1.6406-1.4375-2.1445-2.3477-0.53516-0.96875-0.79688-2.0469-0.65625-3.1211 0.089844-0.69922 0.33984-1.375 0.77734-2.0039 3.0273-4.3477 4.4102-7.8008 4.5234-10.148 0.042969-0.88672-0.10156-1.5625-0.40234-2.0156-0.25-0.37109-0.65234-0.60938-1.1836-0.69531-1.0586-0.17578-2.5391 0.16797-4.3672 1.0898l-0.12891 0.066407c-0.95312 0.48437-1.9883 1.0117-3.0664 1.1875-2.0977 0.34375-3.9023-0.42969-4.5312-4.2539-0.54297-3.3008-1.6562-5.457-3.0156-6.5273-0.67578-0.53125-1.4141-0.77734-2.1562-0.73828-0.80078 0.039063-1.6445 0.39453-2.4766 1.0508-2.0664 1.6328-3.9531 4.9922-4.9609 10.043-0.63672 3.1953-2.668 3.4453-4.7227 3.0352-0.51562-0.10156-1.0469-0.26562-1.5352-0.41797l-0.007812-0.003906c-1.4727-0.45313-2.5586-0.54297-3.3008-0.33594-0.51562 0.14453-0.84766 0.48438-1.0156 0.96875-0.23438 0.67578-0.22656 1.6289-0.003906 2.7773 0.61719 3.1836 2.8164 7.4883 6.0312 11.691 0.58203 0.76172 0.75391 1.5977 0.62891 2.4023-0.10547 0.67578-0.42188 1.3047-0.87891 1.8203-0.42969 0.48828-0.98828 0.89062-1.6133 1.1484-0.95312 0.39453-2.0664 0.45703-3.1055-0.011719-2.5664-1.1602-4.8633-1.3398-6.3945-0.78906-0.58203 0.21094-1.0273 0.52344-1.3047 0.92578-0.26172 0.37891-0.37891 0.86328-0.31641 1.4453 0.15234 1.4688 1.3242 3.4023 3.9219 5.6641 6.2852 5.4727 9.7227 10.781 11.379 16.746 1.4023 5.0586 1.5 10.516 0.96094 16.914 6.4297-5.1992 10.145-10.309 12.16-15.316 2.0977-5.2148 2.3711-10.367 1.9609-15.41-1.082 1.332-2.0391 2.9531-2.8711 4.8672-1.3711 3.1484-2.4023 7.0703-3.0859 11.77l-0.015625 0.14062c-0.078125 0.74609-0.75 1.2891-1.4961 1.2109-0.74609-0.078125-1.2891-0.75-1.2109-1.4961l0.015625-0.14844c0.003906-0.023437 0.003906-0.042968 0.007812-0.066406 0.15625-1.4844 0.29688-2.9375 0.41797-4.3516-0.57812-3.3438-1.6953-5.8906-3.0703-7.9062-1.4062-2.0586-3.0898-3.5859-4.75-4.8477zm18.652-2.3438c0 0.046875 0 0.097656-0.003906 0.14453-0.019531 0.71484 0.007812 1.5 0.085937 2.3672 0.49609 5.5508 0.24219 11.25-2.1055 17.086-2.3398 5.8125-6.7383 11.707-14.527 17.637-0.3125 0.23828-0.59375 0.48438-0.84375 0.73828-0.011719 0.011719-0.019532 0.023438-0.03125 0.03125-0.73438 0.75391-1.1914 1.5586-1.3867 2.3242-0.14453 0.5625-0.14062 1.0898 0.007813 1.5312 0.13281 0.40234 0.39062 0.75391 0.77344 1.0078 0.57031 0.38281 1.4297 0.57422 2.5781 0.47266 7.8984-0.69922 12.691-3.7344 17.551-6.8164 2.9531-1.8711 5.9336-3.7578 9.6641-5.2148 1.1328-0.44141 2.5977-0.79297 4.1133-0.97266 1.3906-0.16406 2.8477-0.1875 4.1523-0.003906 6.5664 0.91406 11.848 0.98438 15.262 0.13672 1.4531-0.35938 2.5078-0.86719 3.1094-1.5273 0.48438-0.53125 0.66016-1.2266 0.48828-2.0977-0.21875-1.0977-0.9375-2.4336-2.2148-4.0234-0.69531-0.86328-1.1484-1.9062-1.3633-2.9766-0.21094-1.0625-0.1875-2.1719 0.078125-3.1758 0.28516-1.0703 0.84375-2.0312 1.6914-2.7109 0.54688-0.4375 1.1953-0.75391 1.9492-0.90625 5.1953-1.0352 8.5859-2.5664 10.297-4.1836 0.64062-0.60547 1.0039-1.1914 1.0977-1.7266 0.078125-0.44531-0.046875-0.89844-0.36719-1.3281-0.64062-0.85938-1.9453-1.6406-3.8984-2.2344l-0.13672-0.042969c-1.0273-0.3125-2.1445-0.65234-3.0391-1.2695-1.75-1.2031-2.5156-3.0117-0.31641-6.207 1.8711-2.7227 2.5898-5.0039 2.3945-6.6875-0.097657-0.84375-0.44141-1.5195-0.98828-2-0.58984-0.51953-1.4375-0.84766-2.4922-0.94922-2.6367-0.25781-6.3711 0.82812-10.691 3.6758-2.8164 1.8555-4.3984 0.54297-5.5586-1.2188-0.27344-0.41797-0.47656-0.78516-0.67188-1.1328l-0.070313-0.12891 0.003907-0.003906c-0.74609-1.3438-1.4648-2.1562-2.1445-2.5195-0.47266-0.25391-0.94531-0.23828-1.4062-0.003906-0.64453 0.32812-1.3008 1.0195-1.9297 1.9961-0.51953 0.80469-1.0078 1.7734-1.4531 2.8789-0.023437 0.070312-0.050781 0.14062-0.082031 0.21094-1.0195 2.6016-1.8047 5.9102-2.2148 9.5156-0.10938 0.95703-0.5625 1.6797-1.2148 2.1758-0.54688 0.41406-1.2109 0.64844-1.9023 0.70703-0.64453 0.054688-1.3242-0.042968-1.9492-0.28906-0.96094-0.37891-1.8086-1.1016-2.2344-2.1641-1.0469-2.6133-2.5742-4.332-4.0625-4.9961-0.56641-0.25391-1.1133-0.33594-1.5898-0.23828-0.44531 0.09375-0.86328 0.35938-1.2227 0.82031-0.66406 0.85156-1.1094 2.2617-1.1836 4.293zm6.1172 11.227c0.32422 2.0625 0.48047 4.3359 0.066407 6.793-0.40625 2.4062-1.3633 5.0156-3.2656 7.8281-1.0508 0.92188-2.1406 1.8555-3.2656 2.8047l-0.03125 0.023437c-0.035157 0.027344-0.070313 0.058594-0.10547 0.089844-1.3906 1.168-2.8359 2.3555-4.3398 3.5664-0.58594 0.47266-0.67969 1.3281-0.20703 1.9102 0.47266 0.58594 1.3281 0.67969 1.9102 0.20703 1.5156-1.2188 2.9766-2.4219 4.3828-3.6016 0.011718-0.007812 0.019531-0.015625 0.027344-0.023438 4.5625-3.5469 8.6953-5.9102 12.395-7.0977 3.5586-1.1406 6.707-1.1836 9.4453-0.12891 0.69922 0.26953 1.4844-0.082031 1.7539-0.78125 0.26953-0.69922-0.082032-1.4844-0.78125-1.7539-3.3359-1.2812-7.0859-1.2578-11.246 0.074218-0.44141 0.14063-0.89062 0.29688-1.3438 0.46875 2.0898-2.043 3.9766-4.0156 5.6641-5.918 0.59766-0.67188 1.168-1.3398 1.7148-1.9961 3.3125-1.9688 6.3516-3.4297 9.1172-4.3789 2.7461-0.94141 5.1914-1.3672 7.3398-1.2812 0.75 0.027344 1.3828-0.55469 1.4102-1.3047 0.027343-0.75-0.55469-1.3828-1.3047-1.4102-2.4961-0.10156-5.2734 0.375-8.332 1.4219-1.375 0.47266-2.8125 1.0625-4.3125 1.7695 1.9688-2.9219 3.3672-5.6484 4.1992-8.1914 0.23047-0.71484-0.16016-1.4844-0.875-1.7148-0.71484-0.23047-1.4844 0.16016-1.7148 0.875-1.1836 3.6094-3.6641 7.6953-7.4414 12.262-0.023438 0.027344-0.046876 0.054687-0.070313 0.082031-0.5625 0.67969-1.1562 1.3672-1.7773 2.0703-1.9922 2.25-4.2812 4.6016-6.8594 7.0586 0.25391-0.84766 0.44531-1.6797 0.58203-2.4883 0.46875-2.793 0.29687-5.3438-0.066407-7.6562-0.11328-0.74219-0.80859-1.25-1.5508-1.1367-0.74219 0.11328-1.25 0.80859-1.1367 1.5508z" fill-rule="evenodd"/>
</svg>