<svg xmlns="http://www.w3.org/2000/svg" viewBox="0 0 64 64" fill="none" stroke="currentColor" stroke-width="2" stroke-linecap="round" stroke-linejoin="round">
  <!-- Outer leaves -->
  <path d="M32 58 C20 56 12 48 12 36 C12 30 14 24 18 20 C20 18 24 16 28 18 C30 12 32 8 32 8"/>
  <path d="M32 58 C44 56 52 48 52 36 C52 30 50 24 46 20 C44 18 40 16 36 18 C34 12 32 8 32 8"/>
  
  <!-- Middle leaves -->
  <path d="M32 8 C28 10 24 14 22 20 C20 26 20 32 22 38 C24 44 28 50 32 54"/>
  <path d="M32 8 C36 10 40 14 42 20 C44 26 44 32 42 38 C40 44 36 50 32 54"/>
  
  <!-- Inner leaves -->
  <path d="M28 18 C26 22 26 26 28 30 C30 34 32 38 32 42"/>
  <path d="M36 18 C38 22 38 26 36 30 C34 34 32 38 32 42"/>
  
  <!-- Leaf veins -->
  <path d="M22 28 C26 28 30 30 32 32"/>
  <path d="M42 28 C38 28 34 30 32 32"/>
  <path d="M24 36 C28 36 30 38 32 40"/>
  <path d="M40 36 C36 36 34 38 32 40"/>
</svg>