<svg xmlns="http://www.w3.org/2000/svg" viewBox="0 0 100 100" fill="none" stroke="currentColor" stroke-width="2" stroke-linecap="round" stroke-linejoin="round">
  <!-- Outer ruffled leaves -->
  <path d="M50 90 Q35 88 25 80 Q20 75 18 68 Q16 60 18 52 Q20 45 25 40 Q30 35 35 32 Q40 28 45 28 Q48 25 50 20" />
  <path d="M50 90 Q65 88 75 80 Q80 75 82 68 Q84 60 82 52 Q80 45 75 40 Q70 35 65 32 Q60 28 55 28 Q52 25 50 20" />
  
  <!-- Middle leaves with ruffles -->
  <path d="M35 32 Q32 35 30 40 Q28 45 28 50 Q28 58 32 65 Q36 72 42 78" />
  <path d="M65 32 Q68 35 70 40 Q72 45 72 50 Q72 58 68 65 Q64 72 58 78" />
  
  <!-- Left side ruffled leaf -->
  <path d="M25 55 Q20 58 18 62 Q16 66 18 70 Q20 74 25 76" />
  <path d="M25 55 Q23 52 22 48 Q21 44 22 40" />
  
  <!-- Right side ruffled leaf -->
  <path d="M75 55 Q80 58 82 62 Q84 66 82 70 Q80 74 75 76" />
  <path d="M75 55 Q77 52 78 48 Q79 44 78 40" />
  
  <!-- Inner leaves -->
  <path d="M42 35 Q38 38 36 43 Q35 48 36 53 Q38 58 42 62 Q45 66 50 68" />
  <path d="M58 35 Q62 38 64 43 Q65 48 64 53 Q62 58 58 62 Q55 66 50 68" />
  
  <!-- Top inner leaf -->
  <path d="M50 20 Q46 22 44 26 Q42 30 42 35" />
  <path d="M50 20 Q54 22 56 26 Q58 30 58 35" />
  
  <!-- Leaf veins -->
  <path d="M35 45 Q40 48 45 50" stroke-width="1" />
  <path d="M65 45 Q60 48 55 50" stroke-width="1" />
  <path d="M38 55 Q42 57 46 58" stroke-width="1" />
  <path d="M62 55 Q58 57 54 58" stroke-width="1" />
  <path d="M42 65 Q46 66 50 66" stroke-width="1" />
  <path d="M58 65 Q54 66 50 66" stroke-width="1" />
  
  <!-- Outer leaf ruffles detail -->
  <path d="M28 48 Q26 50 26 52 Q26 54 28 56" stroke-width="1" />
  <path d="M72 48 Q74 50 74 52 Q74 54 72 56" stroke-width="1" />
  <path d="M32 70 Q34 72 36 72 Q38 72 40 70" stroke-width="1" />
  <path d="M68 70 Q66 72 64 72 Q62 72 60 70" stroke-width="1" />
</svg>